# xmcd
#
# Track frame offsets: 
#        150
#        12426
#        23287
#        34112
#        44630
#        57120
#        67504
#        80289
#        92665
#        103653
#        118225
#        130738
#
# Disc length: 1908 seconds
#
# Revision: 0
# Processed by: cddbd v1.5.2PL0 Copyright (c) Steve Scherf et al.
# Submitted via: ExactAudioCopy v1.0b1
#
DISCID=8c07720c
DTITLE=Charlie Moore - Cotton Farmer
DYEAR=1979
DGENRE=Bluegrass
TTITLE0=The Cotton Farner
TTITLE1=Ustairs in The Bedroom
TTITLE2=Sand Mountain Blues
TTITLE3=Lisa
TTITLE4=Broken Engagement
TTITLE5=I Will Sing You a Song
TTITLE6=Don't Call Me
TTITLE7=Will You Be Loving Another Man
TTITLE8=The End of Memory Lane
TTITLE9=Bartender Blues
TTITLE10=Just One More Time
TTITLE11=I Am A Pilgrim
EXTD=
EXTT0=
EXTT1=
EXTT2=
EXTT3=
EXTT4=
EXTT5=
EXTT6=
EXTT7=
EXTT8=
EXTT9=
EXTT10=
EXTT11=
PLAYORDER=
